<svg width="960" height="300.2" xmlns="http://www.w3.org/2000/svg">
 <style type="text/css">.st0{fill:#FFFFFF;}</style>

 <g>
  <title>background</title>
  <rect fill="none" id="canvas_background" height="402" width="582" y="-1" x="-1"/>
 </g>
 <g>
  <title>Layer 1</title>
  <path id="svg_1" d="m937.4,86.3c0.3,-4.9 -0.7,-8.5 -3.1,-11.3c-1.1,-1.2 -3,-1.9 -5.2,-1.9c-4.5,0 -6.4,3.1 -7.3,6.6c-0.7,1.9 -0.9,4 -0.7,6.6l0,64.6c-0.2,4.9 1,8.5 3.1,11c1.2,1.2 2.8,1.9 4.9,1.9c4.5,0 6.6,-2.8 7.5,-6.3c0.7,-1.8 1,-4 0.7,-6.6l0.1,-64.6l0,0zm22.3,65.3c-0.7,12.5 -4.5,21.2 -12.7,28c-4.2,3.5 -10.1,5.2 -17.9,5.2c-15.3,0 -22.8,-8.5 -26.6,-16.9c-2.1,-4.9 -3.5,-10.6 -3.8,-16.9l0,-64.7c0.7,-12.5 4.5,-21.6 12.7,-28.6c4,-3.6 9.9,-5.2 17.6,-5.2c15.2,0 23,8.5 26.8,16.7c2.1,4.9 3.5,10.4 3.8,16.5l0,65.9l0.1,0zm-77.5,-97.3l0,131.8c0,6.6 0,16.9 -3.3,25.4c-3.3,8.7 -10.6,15.5 -24,15.5c-3.7,0 -6.3,-0.2 -8,-0.7c-1,-0.2 -1.7,-0.5 -2.4,-0.7l0,-21.9c0.7,0.2 1.4,0.2 2.1,0.4c1.6,0.2 3.1,0.5 4.5,0.5c4,0 5.9,-3.3 6.8,-7.3c0.2,-1.9 0.5,-4 0.5,-6.1l0,-5.4l0,-131.5l23.8,0l0,0zm-23.7,-44.2l23.7,0l0,23.7l-23.7,0c0,0 0,-23.7 0,-23.7zm-38.1,76.2c0.2,-4.9 -0.7,-8.5 -3,-11.3c-1.2,-1.2 -3.1,-1.9 -5.2,-1.9c-4.5,0 -6.4,3.1 -7.3,6.6c-0.7,1.9 -1,4 -0.7,6.6l0,64.6c-0.2,4.9 1,8.5 3.1,11c1.2,1.2 2.8,1.9 4.9,1.9c4.5,0 6.6,-2.8 7.5,-6.3c0.7,-1.8 1,-4 0.7,-6.6l0,-64.6l0,0zm22.3,65.3c-0.7,12.5 -4.5,21.2 -12.7,28c-4.2,3.5 -10.1,5.2 -17.9,5.2c-15.3,0 -22.8,-8.5 -26.6,-16.9c-2.1,-4.9 -3.5,-10.6 -3.8,-16.9l0,-64.7c0.7,-12.5 4.5,-21.6 12.7,-28.6c4,-3.6 9.9,-5.2 17.6,-5.2c15.3,0 23.1,8.5 26.8,16.7c2.1,4.9 3.5,10.4 3.7,16.5l0.2,65.9l0,0zm-120.6,5.9c8.7,0 13.6,-0.9 16.2,-9.4c1.2,-4 2.1,-10.1 2.4,-18.4c0.3,-8.2 0.3,-19.3 0.3,-33.4c0,-14.1 0,-25.1 -0.3,-33.4c-0.2,-8 -1.2,-14.1 -2.4,-18.3c-2.6,-8.2 -7.5,-9.2 -16.2,-9.2l0,122.1zm-25.4,25.4l0,-172.8l20,0c23.5,0 36.2,4.7 43,17.8c6.6,13.2 7.5,34.8 7.5,68.7c0,33.8 -1,55.2 -7.5,68.4c-6.8,13.1 -19.5,17.9 -43,17.9l-20,0zm-10.4,-104.1c-2.1,-0.7 -4.5,-0.9 -6.6,-0.9c-3.8,0 -8.2,0.5 -12,4c-4.5,3.8 -5.2,7.8 -5.2,11.8l0,89.3l-23.7,0l0,-128.7l23.7,0l0,14.3c0.3,-1.6 1.9,-5.6 5.7,-9.4c3.7,-3.5 9.4,-6.8 18.1,-6.8l0,26.4zm-102.5,25.6l17.2,0l0,-18.1c0,-4.9 -0.9,-8.5 -3.3,-11.3c-1.2,-1.2 -3.1,-1.9 -5.1,-1.9c-4.5,0 -6.3,3.1 -7.5,6.6c-0.7,1.9 -1,4 -1.2,6.6l0,18.1l-0.1,0zm39.3,32.4l0,14.8c-0.7,12.5 -4.5,21.2 -12.9,28c-4.2,3.5 -10.1,5.2 -17.9,5.2c-15.2,0 -23,-8.5 -26.8,-16.9c-2.1,-4.9 -3.5,-10.6 -3.7,-16.9l0,-64.7c0.7,-12.5 4.7,-21.6 13.2,-28.6c4,-3.6 9.9,-5.2 17.7,-5.2c15.2,0 23,8.5 26.8,16.7c2.1,4.9 3.5,10.4 3.8,16.5l0,37.4l-39.3,0l0,28c0.2,4.9 1.6,8.5 3.8,11c1.1,1.2 2.8,1.9 5,1.9c4.4,0 6.6,-2.8 7.5,-6.3c0.7,-1.8 0.9,-4 0.9,-6.6l0,-14.1l21.9,-0.2l0,0zm-102.3,-54.3c0,-3.8 -3.5,-7.8 -7.1,-7.8c-3.5,0 -6.3,3.3 -6.3,7.8l0,72.1c0,4.5 2.8,7.8 6.3,7.8c3.5,0 7.1,-3.3 7.1,-7.8l0,-72.1zm23.8,100.4l-23.7,0l0,-8.5c-4,3.8 -7.5,6.6 -12,8.7c-2.3,1.1 -4.7,1.6 -6.8,1.6c-6.6,0 -11.1,-3.8 -13.9,-8.7c-3.1,-4.7 -4.5,-11 -4.5,-16.5l0,-82c0,-5.4 1.4,-11.8 4.5,-16.7c2.8,-4.7 7.2,-8.5 13.9,-8.5c4.5,0 9.2,2.6 12.7,5.2c2.1,1.6 4,3.3 6.1,5.1l0,-52.5l23.7,0l0,172.8l0,0zm-98.8,-96.6c0.2,-4.9 -0.7,-8.5 -3.1,-11.3c-1.2,-1.2 -3.1,-1.9 -5.2,-1.9c-4.5,0 -6.3,3.1 -7.3,6.6c-0.7,1.9 -0.9,4 -0.7,6.6l0,64.6c-0.2,4.9 0.9,8.5 3.1,11c1.2,1.2 2.8,1.9 4.9,1.9c4.5,0 6.6,-2.8 7.5,-6.3c0.7,-1.8 0.9,-4 0.7,-6.6l0,-64.6l0.1,0zm22.3,65.3c-0.7,12.5 -4.5,21.2 -12.7,28c-4.2,3.5 -10.1,5.2 -17.9,5.2c-15.3,0 -22.8,-8.5 -26.5,-16.9c-2.1,-4.9 -3.5,-10.6 -3.8,-16.9l0,-64.7c0.7,-12.5 4.4,-21.6 12.7,-28.6c4,-3.6 9.9,-5.2 17.6,-5.2c15.3,0 23,8.5 26.8,16.7c2.1,4.9 3.5,10.4 3.8,16.5l0,65.9l0,0zm-74,-28l0,23.7c-0.2,7.1 -1.7,13.4 -4.2,18.8c-2.1,4.7 -5.4,9.2 -10.1,12.7c-4.7,3.7 -11,5.9 -19.5,5.9c-8.5,0 -15.1,-2.1 -19.7,-5.9c-4.7,-3.5 -7.8,-8 -9.9,-12.7c-2.6,-5.4 -4,-11.7 -4.2,-18.8l0,-101.7c0.3,-6.8 1.7,-13.2 4.2,-18.6c2.1,-4.7 5.2,-9.4 9.9,-12.9c4.7,-3.5 11.3,-5.9 19.7,-5.9c8.4,0 14.8,2.4 19.5,5.9c4.7,3.5 8,8.2 10.1,12.9c2.6,5.4 4,11.8 4.2,18.6l0,23.7l-23.8,0l0,-23.7c0,-4.7 -1.2,-8 -3.7,-10.8c-1.2,-1.2 -3.3,-1.9 -5.9,-1.9c-4.4,0 -6.6,3.3 -7.7,6.3c-0.7,1.9 -0.9,4 -1.2,6.4l0,101.8c0.3,4.9 1.7,8.2 4,10.8c1.2,1.2 2.8,1.9 4.9,1.9c5.4,0 7.5,-2.8 8.7,-6.3c0.7,-1.7 0.9,-3.8 0.9,-6.3l0,-23.7l23.8,-0.2l0,0z" class="st0"/>
  <path id="svg_2" d="m158.9,39.5l-26.5,0l0,51.3l26.5,0l0,-51.3zm-35.2,51.7l0,-52c0,-2.3 0.9,-4.2 2.5,-5.9c1.6,-1.7 3.6,-2.5 5.9,-2.5l27.1,0c2.3,0 4.2,0.8 5.8,2.5c1.7,1.7 2.5,3.6 2.5,5.9l0,52c0,2.3 -0.8,4.3 -2.5,5.9c-1.6,1.7 -3.6,2.5 -5.9,2.5l-27,0c-2.3,0 -4.4,-0.8 -6,-2.5c-1.6,-1.6 -2.4,-3.6 -2.4,-5.9" class="st0"/>
  <path id="svg_3" d="m147.2,0c81.3,0 147.3,65.9 147.3,147.2c0,81.3 -65.9,147.2 -147.3,147.2c-81.3,0.1 -147.2,-65.8 -147.2,-147.2c0,-81.3 65.9,-147.2 147.2,-147.2zm-1.4,7.6c-0.7,0 -1.4,0 -2.1,0c-76.1,1.1 -137.6,63.3 -137.6,139.7c0,76.5 61.6,138.6 137.8,139.6c-37.7,-0.9 -68,-31.8 -68,-69.8c0,-38.5 31.3,-69.8 69.8,-69.8c38.5,0 69.8,-31.3 69.8,-69.8c0.1,-38.6 -31.2,-69.9 -69.7,-69.9zm22.9,249.6c1.2,0 2.3,-0.4 3.1,-1.3c0.8,-0.9 1.3,-1.9 1.3,-3.1l0,-22.5c0,-1.2 -0.4,-2.2 -1.3,-3.1c-0.9,-0.9 -1.9,-1.3 -3.1,-1.3c-1.2,0 -2.2,0.4 -3.1,1.3c-0.9,0.8 -1.3,1.9 -1.3,3l0,18.1l-8.7,0l0,-60l-21.8,0c-1.2,0 -2.2,0.4 -3.1,1.3c-0.9,0.8 -1.3,1.9 -1.3,3.1c0,1.2 0.4,2.2 1.3,3.1c0.9,0.8 1.9,1.3 3.1,1.3l13.2,0l0,51.3l-13.3,0c-1.2,0 -2.2,0.4 -3.1,1.2c-0.9,0.8 -1.2,1.8 -1.2,3c0,1.2 0.4,2.3 1.2,3.2c0.9,0.9 1.9,1.3 3.1,1.3l35,0.1l0,0z" class="st0"/>
  <text xml:space="preserve" text-anchor="start" font-family="Helvetica, Arial, sans-serif" font-size="101" id="svg_6" y="268.600006" x="422.5" fill-opacity="null" stroke-opacity="null" stroke-width="0" stroke="null" fill="#ffffff">Ardkeen</text>
 </g>
</svg>